<svg width="159" height="379" viewBox="0 0 159 379" fill="none" xmlns="http://www.w3.org/2000/svg">
<path d="M18.9512 323.541C22.7678 323.541 26.074 325.689 27.7393 328.833C38.0594 346.567 57.0466 358.499 79.2793 358.499C101.512 358.499 120.877 346.336 131.124 328.323C131.124 328.335 131.148 328.359 131.148 328.359C132.887 325.483 136.047 323.552 139.657 323.552C145.139 323.553 149.588 327.995 149.588 333.469C149.588 334.574 149.394 335.63 149.065 336.626H149.203C149.052 336.892 148.901 337.147 148.762 337.402C148.494 338.033 148.154 338.629 147.753 339.187C133.944 362.602 108.927 378.321 79.292 378.321C49.6563 378.321 23.8378 362.116 10.1748 338.106H10.1865C9.44514 336.723 9.01956 335.145 9.01953 333.458C9.01953 327.983 13.4689 323.541 18.9512 323.541ZM149.212 336.626C149.212 336.626 149.208 336.626 149.203 336.626C149.21 336.614 149.217 336.602 149.224 336.59L149.212 336.626ZM62.1768 208.056C67.5493 208.057 71.9011 212.401 71.9014 217.766H71.877C71.877 217.985 71.852 218.216 71.8398 218.434C71.852 218.422 71.877 218.423 71.877 218.423V245.965C71.8769 252.701 71.0384 258.504 69.373 263.395C67.7685 267.765 64.9719 271.71 60.9971 275.218C54.433 280.91 46.0214 283.763 35.9443 283.763C25.8673 283.763 17.5406 280.91 10.9766 275.218C6.94101 271.71 4.08428 267.765 2.41895 263.395C0.802257 259.487 2.33824e-05 253.672 0 245.965V218.204C0.0243073 218.216 0.0489348 218.24 0.0732422 218.24C0.0610922 218.082 0.0488281 217.924 0.0488281 217.766C0.0490916 212.401 4.40077 208.056 9.77344 208.056C15.146 208.057 19.4978 212.402 19.498 217.766C19.498 218.118 19.473 218.471 19.4365 218.81V245.54C19.4366 259.462 24.9436 266.418 35.9443 266.418C46.9452 266.418 52.4521 259.462 52.4521 245.54V218.725C52.4765 218.737 52.4888 218.738 52.501 218.738C52.4645 218.422 52.4521 218.094 52.4521 217.766C52.4524 212.401 56.8041 208.056 62.1768 208.056ZM149.041 208.056C154.414 208.056 158.766 212.402 158.766 217.767H158.741C158.741 217.986 158.717 218.216 158.705 218.434C158.716 218.423 158.738 218.423 158.741 218.423V245.965C158.741 252.701 157.903 258.504 156.237 263.395C154.633 267.765 151.837 271.71 147.862 275.218C141.298 280.91 132.887 283.763 122.81 283.763C112.733 283.763 104.406 280.91 97.8418 275.218C93.8062 271.71 90.9495 267.765 89.2842 263.395C87.6675 259.487 86.8653 253.672 86.8652 245.965V218.204C86.8893 218.216 86.9134 218.24 86.9375 218.24C86.9254 218.082 86.9131 217.925 86.9131 217.767C86.9131 212.402 91.265 208.057 96.6377 208.056C102.011 208.056 106.362 212.402 106.362 217.767C106.362 218.119 106.338 218.471 106.302 218.81V245.54C106.302 259.462 111.809 266.418 122.81 266.418C133.81 266.418 139.316 259.462 139.316 245.54V218.725C139.341 218.737 139.353 218.738 139.365 218.738C139.329 218.423 139.316 218.095 139.316 217.767C139.316 212.402 143.668 208.057 149.041 208.056ZM37.7559 3.80347C53.4124 -5.65232 73.7126 3.39087 77.1162 21.3435L81.2422 43.0818L90.7422 21.1736C97.7803 4.94467 118.579 0.198167 131.975 11.7537C145.82 23.6978 143.474 45.7773 127.429 54.5535L108.002 65.1882L131.829 67.4451C149.467 69.108 160.407 87.388 153.539 103.702L153.196 104.482C145.763 120.677 124.486 124.943 111.371 112.612L95.2139 97.4265L100.431 120.757C104.235 137.747 90.7025 153.562 73.4316 152.639L72.6064 152.583C54.6578 151.065 43.6232 132.41 50.7266 116.058L51.0781 115.282L60.5312 95.2839L39.9561 107.428C24.9392 116.294 5.70585 108.328 1.25879 91.6482L1.05762 90.8474C-3.1117 73.0527 11.7793 56.5691 29.9277 58.8875L51.9316 61.6892L33.9756 45.8748C20.8971 34.3562 22.5424 13.6162 37.0557 4.24097L37.7559 3.80347ZM70.4766 99.9851L61.0234 119.983L61.0225 119.982C56.5075 129.556 62.9218 140.719 73.5244 141.621H73.5254C83.8203 142.484 91.9315 133.142 89.6963 123.16V123.157L84.4795 99.8269L80.0059 79.823L70.4766 99.9851ZM102.747 89.4109L118.904 104.596L118.906 104.598C126.649 111.878 139.285 109.194 143.403 99.4275C147.381 89.9679 141.044 79.3625 130.797 78.3962H130.792L106.965 76.1394L86.5713 74.2068L102.747 89.4109ZM28.5342 69.7986C17.9764 68.4498 9.35353 78.0338 11.7676 88.3376C14.1065 98.3196 25.4868 103.197 34.3643 97.9558H34.3652L54.9404 85.8113L72.5674 75.405L50.542 72.6013L28.5381 69.7996L28.5342 69.7986ZM66.3086 23.3923C64.3374 12.9951 52.5555 7.71563 43.4424 13.2195H43.4414C34.6423 18.5326 33.5423 30.835 41.2461 37.6199L59.2021 53.4343L74.5811 66.9792L70.4355 45.1326L66.3096 23.3943L66.3086 23.3923ZM124.789 20.0828C117.126 13.4727 105.293 16.0528 101.031 25.114L100.834 25.5496L91.334 47.4578L83.1943 66.2273L102.72 55.5388L122.146 44.9041L122.15 44.9021C131.462 39.8086 132.816 27.0079 124.789 20.0828Z" fill="#241E14"/>
</svg>
